<svg xmlns="http://www.w3.org/2000/svg" viewBox="0 0 169.42 71.95"><defs><style>.cls-1{fill:#3d3d3d;}.cls-2{fill:#25a7df;}</style></defs><title>goelU</title><g id="Capa_2" data-name="Capa 2"><g id="Capa_1-2" data-name="Capa 1"><path class="cls-1" d="M44.15,51.4a16.76,16.76,0,0,1-6.3-6.67,19.42,19.42,0,0,1-2.2-9.21,19.88,19.88,0,0,1,2.2-9.29,16.54,16.54,0,0,1,6.3-6.73A18.42,18.42,0,0,1,53.87,17a18.39,18.39,0,0,1,9.71,2.49,16.63,16.63,0,0,1,6.31,6.73,20,20,0,0,1,2.2,9.29,19.54,19.54,0,0,1-2.2,9.21,16.86,16.86,0,0,1-6.31,6.67,18.47,18.47,0,0,1-9.71,2.48A18.51,18.51,0,0,1,44.15,51.4Zm16.49-7.8a12.53,12.53,0,0,0,2.44-8.08,12.8,12.8,0,0,0-2.44-8.19,8.15,8.15,0,0,0-6.77-3.08,8.14,8.14,0,0,0-6.77,3.08,12.8,12.8,0,0,0-2.45,8.19A12.54,12.54,0,0,0,47.1,43.6a8.2,8.2,0,0,0,6.77,3A8.21,8.21,0,0,0,60.64,43.6Z"/><path class="cls-1" d="M84.74,51.36a16.23,16.23,0,0,1-6.52-6.73,20.33,20.33,0,0,1-2.16-9.4,20,20,0,0,1,2-9.07,16.12,16.12,0,0,1,6-6.56,17.1,17.1,0,0,1,9.28-2.44,16.09,16.09,0,0,1,8.4,2.05,13.25,13.25,0,0,1,5.18,5.53,17.2,17.2,0,0,1,1.74,7.8,23.56,23.56,0,0,1-.57,4.82H85.2a10.31,10.31,0,0,0,3.69,7,11.32,11.32,0,0,0,7.16,2.31,20.41,20.41,0,0,0,10.63-2.91l.43,7.45a23.14,23.14,0,0,1-5.28,1.94,27.16,27.16,0,0,1-6.56.75A20.73,20.73,0,0,1,84.74,51.36Zm15-19.95a8.07,8.07,0,0,0-1.56-4.9,5.58,5.58,0,0,0-4.82-2.12,7.25,7.25,0,0,0-5.24,1.91,9.89,9.89,0,0,0-2.7,5.11Z"/><path class="cls-1" d="M117,51.29a9.8,9.8,0,0,1-2.27-6.7V0h8.79V41a17.33,17.33,0,0,0,.32,4,1.83,1.83,0,0,0,1.14,1.42,10.58,10.58,0,0,0,2.8.25L127,53.88h-3.19Q119.23,53.88,117,51.29Z"/><path class="cls-2" d="M28.78,24.83a13.92,13.92,0,0,0-5.31-5.66,15.48,15.48,0,0,0-8.16-2.09,15.48,15.48,0,0,0-8.16,2.09,14,14,0,0,0-5.3,5.66A16.74,16.74,0,0,0,0,32.63a16.45,16.45,0,0,0,1.85,7.75h0A1.71,1.71,0,0,1,2,41.69l-.87,2.65A1.45,1.45,0,0,0,2.18,46.2l.87.17a24.2,24.2,0,0,0,4.79.51h0a5.67,5.67,0,0,1,1.91.32,17.08,17.08,0,0,0,5.54.86A15.47,15.47,0,0,0,23.47,46a14.08,14.08,0,0,0,5.31-5.6,16.44,16.44,0,0,0,1.84-7.75A16.73,16.73,0,0,0,28.78,24.83ZM20.55,38.71a6.38,6.38,0,0,1-5.2,2.22,6.44,6.44,0,0,1-5.27-2.22,9.35,9.35,0,0,1-1.84-6.14,9.32,9.32,0,0,1,1.84-6.13,6.42,6.42,0,0,1,5.27-2.23,6.36,6.36,0,0,1,5.2,2.23,9.38,9.38,0,0,1,1.83,6.13A9.41,9.41,0,0,1,20.55,38.71Z"/><path class="cls-2" d="M27.79,67.91A43.57,43.57,0,0,1,4.16,71.65a4,4,0,0,1-3.7-3.5L.4,67.77c-.32-2.18.85-4.82,2.53-4.4,7.94,2,15.83.91,23.68-3.43,1.49-.83,3.31,1.28,3.66,3.43v.08A4.06,4.06,0,0,1,27.79,67.91Z"/><path class="cls-2" d="M27.84,56.35a43.71,43.71,0,0,1-23.5,4.54A4,4,0,0,1,.52,57.52l-.07-.38C.06,55,1.14,52.3,2.83,52.66c8,1.71,15.86.36,23.55-4.24,1.46-.88,3.35,1.16,3.77,3.3l0,.08A4.09,4.09,0,0,1,27.84,56.35Z"/><circle class="cls-2" cx="29.84" cy="14.49" r="3.81"/><path class="cls-2" d="M137.06,49.5q-4.89-4.29-4.89-11.86V17.23h8.57V35.94a19.16,19.16,0,0,0,.87,6.25,7.13,7.13,0,0,0,3.25,3.89,13.37,13.37,0,0,0,11.87,0A7.09,7.09,0,0,0,160,42.19a19.16,19.16,0,0,0,.87-6.25V17.23h8.57V37.64q0,7.56-4.89,11.86c-3.26,2.87-7.3,4.3-13.73,4.3S140.32,52.37,137.06,49.5Z"/></g></g></svg>